<svg xmlns="http://www.w3.org/2000/svg" width="1200" height="800" viewBox="0 0 1200 800" fill="none">
  <defs>
    <linearGradient id="bg2" x1="0" y1="0" x2="1" y2="1">
      <stop offset="0" stop-color="#121E35"/>
      <stop offset="1" stop-color="#264878"/>
    </linearGradient>
    <linearGradient id="glass" x1="0" y1="0" x2="0" y2="1">
      <stop offset="0" stop-color="#70E7FF" stop-opacity="0.35"/>
      <stop offset="1" stop-color="#70E7FF" stop-opacity="0.1"/>
    </linearGradient>
  </defs>
  <rect width="1200" height="800" fill="url(#bg2)"/>
  <rect x="80" y="120" width="1040" height="560" rx="30" fill="#0F1B30" stroke="#72E6FF" stroke-opacity="0.4"/>
  <rect x="150" y="180" width="900" height="260" rx="20" fill="url(#glass)"/>
  <rect x="210" y="500" width="780" height="120" rx="20" fill="#183353"/>
  <rect x="240" y="530" width="260" height="60" rx="10" fill="#2B5D8E"/>
  <rect x="530" y="530" width="180" height="60" rx="10" fill="#2B5D8E"/>
  <rect x="740" y="530" width="220" height="60" rx="10" fill="#2B5D8E"/>
  <circle cx="320" cy="300" r="70" fill="#70E7FF" fill-opacity="0.25"/>
  <rect x="430" y="255" width="530" height="24" rx="12" fill="#B5F5FF" fill-opacity="0.5"/>
  <rect x="430" y="300" width="420" height="18" rx="9" fill="#B5F5FF" fill-opacity="0.35"/>
  <rect x="430" y="338" width="360" height="18" rx="9" fill="#B5F5FF" fill-opacity="0.35"/>
  <text x="600" y="655" text-anchor="middle" font-size="30" fill="#DAF7FF" font-family="Verdana, sans-serif">SUITE EXPERIENCE</text>
</svg>
