<svg xmlns="http://www.w3.org/2000/svg" width="1200" height="800" viewBox="0 0 1200 800" fill="none">
  <defs>
    <linearGradient id="bg3" x1="0" y1="0" x2="1" y2="1">
      <stop offset="0" stop-color="#0D1A2F"/>
      <stop offset="1" stop-color="#1D6A73"/>
    </linearGradient>
  </defs>
  <rect width="1200" height="800" fill="url(#bg3)"/>
  <rect x="100" y="120" width="1000" height="560" rx="32" fill="#0C223B" stroke="#4BE2D0" stroke-opacity="0.4"/>
  <rect x="160" y="190" width="300" height="420" rx="20" fill="#143556"/>
  <rect x="500" y="190" width="540" height="190" rx="20" fill="#102B48"/>
  <rect x="500" y="410" width="540" height="200" rx="20" fill="#102B48"/>
  <rect x="210" y="250" width="200" height="48" rx="10" fill="#4BE2D0" fill-opacity="0.45"/>
  <rect x="210" y="325" width="200" height="34" rx="8" fill="#9CF6EC" fill-opacity="0.3"/>
  <rect x="210" y="380" width="200" height="34" rx="8" fill="#9CF6EC" fill-opacity="0.3"/>
  <rect x="210" y="435" width="200" height="34" rx="8" fill="#9CF6EC" fill-opacity="0.3"/>
  <rect x="560" y="250" width="420" height="24" rx="12" fill="#4BE2D0" fill-opacity="0.5"/>
  <rect x="560" y="295" width="300" height="18" rx="9" fill="#9CF6EC" fill-opacity="0.3"/>
  <rect x="560" y="470" width="220" height="90" rx="12" fill="#1E466A"/>
  <rect x="805" y="470" width="175" height="90" rx="12" fill="#1E466A"/>
  <text x="770" y="370" text-anchor="middle" font-size="28" fill="#D8FFF8" font-family="Verdana, sans-serif">OPERATIONS HUB</text>
</svg>
